# xmcd
#
# Track frame offsets: 
#        182
#        13537
#        32671
#        41960
#        55962
#        69943
#        88608
#        105851
#        118655
#        132388
#
# Disc length: 1979 seconds
#
# Revision: 0
# Processed by: cddbd v1.5.2PL0 Copyright (c) Steve Scherf et al.
# Submitted via: ExactAudioCopy v1.3
#
DISCID=7e07b90a
DTITLE=Blått Rom - Blått Rom
DYEAR=2015
DGENRE=Blues
TTITLE0=That's Allright
TTITLE1=Highway 61
TTITLE2=If It Ain't Me (Who You Think Of)
TTITLE3=Ah'w Baby
TTITLE4=Don't Have To Hunt No More
TTITLE5=Money, Marbles and Chalk
TTITLE6=Got My Mojo Working
TTITLE7=Baby Please Set a Date
TTITLE8=Kidman Blues
TTITLE9=Play On Little Girl
EXTD=
EXTT0=
EXTT1=
EXTT2=
EXTT3=
EXTT4=
EXTT5=
EXTT6=
EXTT7=
EXTT8=
EXTT9=
PLAYORDER=
